<?xml version="1.0" standalone="no"?>
<!DOCTYPE svg PUBLIC "-//W3C//DTD SVG 20010904//EN"
 "http://www.w3.org/TR/2001/REC-SVG-20010904/DTD/svg10.dtd">
<svg version="1.0" xmlns="http://www.w3.org/2000/svg"
 width="959.000000pt" height="958.000000pt" viewBox="0 0 959.000000 958.000000"
 preserveAspectRatio="xMidYMid meet">

<g transform="translate(0.000000,958.000000) scale(0.100000,-0.100000)"
fill="#000000" stroke="none">
<path d="M4525 9444 c-286 -10 -642 -58 -890 -120 -568 -142 -1034 -349 -1505
-668 -213 -144 -539 -421 -717 -610 -332 -351 -565 -688 -783 -1131 -106 -216
-164 -358 -228 -556 -51 -156 -61 -209 -39 -209 10 0 23 21 37 58 155 415 348
787 577 1107 585 820 1370 1402 2313 1713 223 74 416 123 616 156 319 54 385
59 789 59 357 1 392 -1 576 -26 289 -39 599 -110 828 -189 1000 -344 1799
-957 2378 -1823 183 -275 371 -643 483 -950 36 -97 47 -118 61 -109 17 10 9
50 -36 188 -340 1038 -1030 1905 -1962 2467 -598 360 -1236 566 -1948 628
-130 12 -422 19 -550 15z"/>
<path d="M5320 8796 c-196 -37 -330 -172 -386 -386 -29 -114 -9 -292 44 -396
48 -94 152 -184 256 -223 71 -25 192 -35 269 -20 70 14 195 69 222 99 25 28
32 26 55 -21 16 -31 26 -40 43 -37 22 3 22 6 25 177 1 98 -2 179 -7 184 -5 5
-18 6 -29 3 -14 -5 -27 -29 -46 -90 -28 -92 -72 -157 -132 -198 -73 -50 -203
-73 -271 -48 -15 6 -56 30 -90 53 -107 71 -153 192 -153 400 0 255 85 403 251
438 83 18 167 4 241 -40 76 -46 116 -100 148 -202 24 -78 42 -102 67 -92 14 6
15 30 10 196 -4 105 -11 195 -16 200 -20 20 -51 -4 -57 -43 -10 -61 -21 -63
-94 -19 -108 66 -229 88 -350 65z"/>
<path d="M3810 8597 c-80 -29 -108 -47 -147 -95 -111 -138 -123 -332 -30 -471
42 -63 87 -99 159 -128 113 -46 259 -19 342 63 53 54 70 114 32 114 -9 0 -40
-24 -70 -54 -72 -72 -132 -90 -218 -64 -79 24 -131 126 -144 288 -6 74 -5 80
12 81 10 1 114 5 229 8 l210 6 3 24 c8 55 -71 177 -136 210 -36 18 -126 41
-160 41 -9 0 -46 -11 -82 -23z m160 -79 c31 -22 56 -78 46 -103 -4 -12 -31
-15 -136 -15 -144 0 -143 -1 -116 65 30 71 143 100 206 53z"/>
<path d="M2895 8382 c-78 -41 -90 -51 -93 -76 -4 -28 -3 -29 36 -22 22 3 47 9
55 12 22 8 47 -24 103 -128 90 -170 106 -216 101 -281 -8 -95 -77 -167 -159
-167 -56 0 -73 25 -283 428 -20 39 -44 72 -51 72 -17 0 -148 -64 -186 -92 -24
-16 -26 -22 -17 -40 9 -17 17 -19 53 -14 73 11 66 19 195 -223 80 -149 106
-186 160 -218 107 -67 285 19 330 159 7 21 16 40 21 43 5 3 27 -12 50 -35 l40
-40 58 45 c120 93 118 91 103 109 -11 13 -24 15 -57 10 -35 -5 -46 -3 -61 15
-10 11 -74 125 -143 253 -94 174 -130 234 -145 235 -11 2 -60 -19 -110 -45z"/>
<path d="M6387 8219 c-115 -28 -196 -94 -244 -199 -50 -111 -39 -218 33 -327
45 -66 91 -96 186 -124 72 -21 83 -22 140 -10 126 26 173 65 244 201 25 47 29
66 29 135 0 99 -31 170 -103 237 -74 70 -200 108 -285 87z m168 -88 c61 -28
87 -62 93 -120 8 -85 -42 -237 -105 -319 -71 -94 -211 -85 -280 18 -32 46 -30
114 6 217 65 187 166 259 286 204z"/>
<path d="M7261 8212 c-7 -13 -4 -24 10 -42 38 -50 32 -64 -120 -280 -166 -235
-312 -430 -331 -440 -14 -7 -29 -5 -55 7 -36 17 -37 17 -51 -2 -8 -10 -14 -21
-14 -24 1 -14 264 -192 276 -187 27 10 27 37 0 65 -46 48 -63 17 270 483 226
315 237 332 227 342 -7 7 -190 96 -198 96 -2 0 -9 -8 -14 -18z"/>
<path d="M1699 8023 c-12 -21 -40 -66 -62 -100 -22 -36 -37 -69 -33 -78 10
-26 34 -28 65 -6 16 12 37 21 48 21 23 0 89 -50 283 -215 85 -72 196 -166 245
-207 187 -156 196 -171 156 -232 -22 -33 -13 -66 17 -66 10 0 66 58 131 136
93 111 113 139 104 153 -16 25 -40 25 -70 -3 -52 -48 0 -86 -658 473 -104 88
-193 161 -197 161 -3 0 -16 -17 -29 -37z"/>
<path d="M7671 7891 c-7 -13 -6 -24 4 -37 21 -28 18 -67 -7 -100 -21 -28 -350
-366 -473 -485 -72 -71 -87 -77 -121 -50 -32 25 -60 27 -68 5 -8 -21 -9 -20
105 -131 110 -107 123 -117 145 -109 20 8 18 29 -7 60 -14 18 -19 34 -15 51 4
14 122 142 270 293 302 306 361 370 361 386 0 11 -161 136 -176 136 -5 0 -13
-8 -18 -19z"/>
<path d="M4425 7713 c-283 -34 -464 -74 -674 -149 -148 -53 -409 -180 -533
-257 -328 -207 -650 -528 -855 -852 -136 -213 -192 -340 -141 -319 7 3 42 49
78 102 393 586 1011 1029 1676 1200 281 72 507 97 799 88 439 -13 789 -103
1200 -307 409 -204 811 -558 1085 -954 82 -118 96 -133 112 -117 7 7 -2 34
-32 94 -199 391 -523 758 -880 998 -202 136 -333 205 -555 293 -339 135 -634
188 -1030 186 -121 -1 -233 -4 -250 -6z"/>
<path d="M1355 7221 c-45 -11 -108 -54 -142 -98 -69 -87 -106 -184 -178 -470
-39 -153 -42 -188 -20 -197 26 -10 42 4 55 47 26 90 50 94 250 42 217 -55 586
-163 641 -186 65 -28 73 -44 59 -121 -10 -56 -10 -63 6 -75 38 -28 36 -33 114
247 75 268 94 364 88 456 -7 110 -69 199 -170 244 -131 58 -270 18 -350 -101
-36 -53 -58 -62 -58 -24 0 101 -74 201 -171 229 -56 17 -77 18 -124 7z m114
-212 c60 -25 101 -67 110 -110 8 -40 -5 -173 -20 -200 -12 -24 -5 -25 -234 40
l-170 49 1 34 c1 37 44 141 72 172 45 50 145 57 241 15z m476 -73 c61 -16 124
-47 146 -72 40 -46 52 -86 46 -160 -8 -103 -38 -154 -89 -154 -38 0 -391 90
-420 107 -4 2 4 35 17 72 71 196 147 248 300 207z"/>
<path d="M3975 7170 c-90 -26 -234 -85 -382 -156 l-133 -63 0 -114 c0 -177
-22 -261 -104 -401 -144 -243 -405 -389 -694 -388 l-104 0 -58 -121 c-106
-223 -185 -443 -169 -468 7 -12 97 -14 521 -14 l512 0 47 84 c140 255 364 470
616 594 258 127 448 166 748 152 214 -9 364 -46 548 -134 257 -124 521 -372
648 -611 l42 -78 51 -6 c28 -3 259 -6 512 -6 367 0 464 3 472 13 21 24 -55
235 -176 487 -24 52 -46 97 -48 99 -2 3 -52 6 -112 7 -121 2 -203 20 -312 66
-184 78 -308 195 -400 378 -59 117 -72 170 -79 324 l-6 138 -84 44 c-113 58
-274 125 -394 163 -53 17 -99 31 -102 31 -3 0 -39 -32 -81 -70 -114 -106 -236
-178 -364 -216 -50 -15 -96 -19 -200 -18 -120 0 -144 3 -220 28 -154 51 -245
107 -346 212 -34 35 -68 64 -75 63 -8 0 -41 -9 -74 -19z m888 -690 c105 -8
356 -64 344 -77 -2 -2 -38 5 -78 16 -168 45 -403 67 -564 51 -106 -10 -314
-47 -370 -65 -15 -5 -16 -4 -5 3 8 5 60 22 115 37 144 40 343 52 558 35z
m1023 -185 c84 -127 216 -246 364 -329 82 -45 71 -47 -18 -2 -176 89 -335 256
-423 444 -40 86 -36 93 6 9 19 -37 50 -92 71 -122z m-2310 125 c-94 -202 -247
-365 -432 -459 -92 -47 -90 -37 5 19 201 119 317 243 415 438 33 66 43 68 12
2z"/>
<path d="M7765 7173 c-53 -13 -70 -58 -34 -94 18 -18 28 -20 85 -13 60 6 67 4
91 -17 32 -30 53 -78 53 -123 0 -26 -8 -41 -35 -65 -20 -17 -44 -31 -55 -31
-10 0 -63 27 -116 61 -156 97 -192 113 -255 113 -64 1 -99 -18 -129 -67 -55
-90 6 -199 154 -277 42 -22 46 -28 40 -50 -4 -14 -7 -46 -8 -72 -1 -41 4 -52
33 -82 40 -42 75 -51 130 -36 64 17 49 60 -21 60 -45 0 -61 23 -32 46 11 8 90
62 176 119 179 119 208 151 208 228 0 106 -107 257 -206 291 -26 9 -50 15 -53
15 -3 -1 -15 -4 -26 -6z m-41 -334 c42 -24 76 -48 76 -54 0 -5 -38 -34 -85
-63 l-84 -53 -48 25 c-103 53 -132 100 -92 150 48 61 121 60 233 -5z"/>
<path d="M8207 6463 c-4 -3 -7 -27 -7 -53 0 -40 -3 -48 -25 -58 -45 -21 -355
-112 -380 -112 -25 0 -55 24 -55 44 0 22 -22 36 -42 25 -25 -13 -23 -25 25
-184 40 -130 45 -140 67 -140 23 0 25 4 28 53 4 63 6 65 176 116 153 46 214
48 279 6 26 -16 47 -33 47 -36 0 -4 -14 -29 -31 -56 -34 -53 -33 -68 6 -94 35
-23 75 -5 104 46 21 37 21 40 5 82 -21 54 -48 84 -96 109 -44 22 -47 34 -15
50 58 30 59 35 15 107 -58 97 -80 117 -101 95z"/>
<path d="M8197 5774 c-145 -26 -261 -77 -464 -203 -206 -128 -439 -227 -663
-283 l-155 -38 -2333 0 -2333 0 -96 36 c-101 38 -205 95 -368 204 -305 204
-427 249 -697 257 -150 5 -178 3 -265 -17 -322 -74 -562 -299 -680 -637 -26
-74 -27 -88 -28 -263 0 -218 11 -271 85 -425 58 -120 121 -199 236 -298 107
-92 231 -159 350 -188 114 -28 366 -31 484 -5 152 33 298 103 512 244 141 93
266 162 369 202 l103 40 2311 -2 2310 -3 100 -34 c140 -47 252 -107 460 -246
295 -199 436 -270 622 -317 78 -20 113 -22 308 -22 209 1 224 2 308 27 109 34
212 85 297 147 86 64 127 107 114 120 -6 6 -161 49 -345 95 -422 106 -495 129
-530 166 -80 86 -79 318 2 569 53 161 137 270 222 288 50 10 95 1 505 -100
250 -62 295 -70 303 -58 43 64 -114 345 -283 505 -220 211 -475 291 -761 239z
m-7285 -354 c80 -38 123 -38 200 0 33 17 64 30 68 30 5 0 25 -26 44 -59 49
-81 73 -94 176 -101 l85 -5 5 -85 c3 -47 12 -95 20 -106 7 -12 42 -40 77 -63
35 -23 62 -45 60 -49 -2 -4 -21 -35 -42 -69 -44 -72 -43 -97 5 -187 17 -31 30
-60 30 -66 0 -5 -24 -25 -52 -43 -85 -55 -92 -67 -98 -165 l-5 -87 -75 -6
c-41 -3 -90 -13 -108 -22 -32 -18 -86 -82 -97 -118 -9 -27 -35 -24 -103 11
-33 17 -73 30 -90 30 -17 0 -61 -16 -98 -36 -65 -35 -69 -35 -81 -18 -92 132
-107 144 -206 151 l-77 6 0 52 c0 98 -26 143 -117 202 -29 18 -53 36 -53 38 0
2 14 33 32 67 41 79 41 116 0 202 -18 38 -31 70 -30 71 2 1 23 15 48 30 94 58
108 80 118 190 l7 70 75 5 c91 7 125 27 175 106 19 30 37 54 39 54 2 0 33 -13
68 -30z"/>
<path d="M2445 4191 l-120 -6 3 -25 c8 -51 96 -280 162 -417 l69 -143 63 0
c328 0 597 -145 741 -400 72 -128 88 -190 94 -357 4 -86 10 -146 17 -152 6 -5
61 -34 122 -65 156 -77 394 -166 446 -166 10 0 53 33 96 73 95 88 194 150 310
190 82 29 96 31 232 31 162 1 216 -10 329 -60 89 -41 177 -103 253 -178 36
-36 64 -56 80 -56 46 0 266 83 421 157 l157 76 0 103 c0 174 41 313 133 451
147 222 353 333 648 349 67 4 123 12 127 18 26 36 147 312 187 429 40 115 46
140 34 148 -8 5 -234 8 -523 6 l-510 -2 -50 -87 c-78 -134 -131 -202 -251
-323 -209 -209 -436 -331 -740 -397 -145 -31 -427 -31 -571 0 -368 79 -634
247 -884 558 -34 42 -86 122 -120 184 l-35 65 -400 1 c-220 0 -454 -2 -520 -5z
m686 -501 c179 -88 331 -237 418 -407 32 -64 25 -65 -11 -3 -101 177 -228 301
-408 399 -87 47 -86 55 1 11z m3168 17 c-16 -13 -142 -77 -134 -69 13 14 117
72 129 72 5 0 7 -1 5 -3z m-272 -190 c-96 -97 -165 -192 -211 -289 -30 -65
-44 -79 -19 -20 40 96 113 206 190 287 29 31 124 115 129 115 2 0 -38 -42 -89
-93z m-757 -256 c-21 -13 -201 -64 -206 -59 -3 4 189 64 211 66 6 1 3 -3 -5
-7z m-975 -48 c99 -28 102 -28 408 -28 312 0 344 -7 117 -25 -175 -14 -352 0
-510 40 -69 18 -132 36 -140 42 -17 10 -21 11 125 -29z m752 -19 c-3 -3 -12
-4 -19 -1 -8 3 -5 6 6 6 11 1 17 -2 13 -5z"/>
<path d="M340 3494 c0 -26 98 -319 157 -469 90 -228 258 -552 400 -773 347
-538 870 -1047 1424 -1387 466 -285 950 -474 1504 -584 223 -45 355 -60 605
-72 523 -23 909 13 1365 126 345 85 571 168 890 325 473 233 858 512 1231 891
400 407 697 849 929 1384 96 221 197 537 177 557 -14 14 -28 -10 -76 -137 -67
-181 -91 -235 -168 -389 -298 -595 -670 -1074 -1163 -1496 -118 -101 -342
-270 -357 -270 -6 0 0 15 12 33 40 60 62 120 62 167 0 126 -76 226 -199 260
-64 18 -119 5 -319 -75 -178 -71 -234 -81 -234 -42 0 33 12 45 141 139 125 93
165 141 188 232 23 92 -10 193 -88 271 -68 68 -49 117 37 94 44 -11 52 -10 75
7 37 27 36 68 -4 105 -57 53 -124 28 -191 -72 l-37 -56 -96 -6 c-114 -8 -160
-26 -231 -90 -62 -56 -106 -146 -112 -228 -4 -50 0 -65 29 -119 49 -92 116
-142 222 -164 32 -7 34 -24 8 -57 -64 -83 -41 -188 49 -225 49 -21 136 -1 320
71 113 45 158 58 203 59 54 1 61 -2 87 -31 39 -43 54 -101 40 -152 -14 -54
-87 -131 -158 -169 -63 -34 -168 -62 -217 -58 -16 2 -38 4 -47 4 -10 1 -33 16
-52 32 -28 25 -35 39 -40 88 -13 104 -23 113 -77 64 -42 -37 -51 -105 -21
-154 66 -106 154 -135 317 -104 39 8 71 13 73 11 13 -12 -323 -188 -528 -276
-488 -209 -1035 -337 -1532 -359 -616 -27 -1167 50 -1718 239 -555 190 -1068
488 -1510 877 -111 98 -272 259 -230 231 143 -98 181 -115 373 -168 62 -17
138 -44 169 -60 l57 -29 85 128 c108 163 121 176 178 169 24 -2 57 -10 75 -18
29 -12 34 -11 52 6 12 10 21 23 21 29 0 6 -57 46 -128 89 -70 43 -172 107
-227 143 -106 69 -147 79 -153 38 -2 -15 11 -33 47 -64 40 -33 51 -48 51 -72
0 -82 -120 -238 -193 -252 -48 -9 -139 2 -192 22 -61 24 -140 86 -186 147 -33
44 -43 68 -54 132 -21 118 -19 175 11 251 73 184 164 329 280 444 104 105 133
118 281 124 117 6 119 6 187 -26 76 -35 157 -109 200 -183 47 -81 57 -255 20
-358 -20 -58 -18 -86 7 -94 30 -10 49 12 143 164 113 183 120 199 105 217 -16
19 -46 9 -84 -27 -17 -16 -35 -29 -41 -29 -6 0 -24 35 -42 78 -72 175 -225
306 -423 361 -299 83 -637 -98 -787 -421 -46 -100 -69 -249 -52 -342 14 -82
69 -222 107 -275 52 -70 -74 58 -177 181 -305 364 -564 804 -744 1268 -31 80
-61 155 -66 168 -11 25 -40 30 -40 6z m6280 -1342 c65 -32 150 -186 150 -270
0 -74 -56 -138 -125 -142 -68 -4 -83 1 -125 41 -81 78 -134 250 -99 316 35 66
127 91 199 55z"/>
<path d="M2210 3484 c0 -60 196 -377 345 -559 401 -488 927 -807 1565 -948
285 -63 731 -73 1025 -22 689 119 1285 469 1708 1002 145 182 328 491 313 528
-9 24 -25 9 -93 -89 -384 -552 -893 -936 -1508 -1140 -279 -92 -491 -127 -815
-133 -404 -8 -694 39 -1057 172 -233 86 -559 270 -758 429 -242 193 -501 474
-656 712 -40 62 -69 82 -69 48z"/>
<path d="M7562 2960 c-99 -21 -202 -102 -250 -199 -24 -50 -27 -67 -27 -156 0
-123 18 -178 90 -272 85 -113 212 -183 332 -183 106 0 241 56 301 124 78 89
110 187 93 282 -14 74 -25 85 -53 56 -18 -18 -23 -37 -28 -111 -4 -79 -8 -94
-36 -133 -38 -52 -84 -85 -133 -94 -54 -11 -139 11 -196 51 -77 53 -175 150
-175 174 0 13 50 66 152 158 84 76 170 154 192 174 49 45 45 53 -51 97 -76 34
-147 45 -211 32z m66 -130 c23 -17 42 -34 42 -40 0 -10 -223 -212 -240 -218
-14 -5 -50 76 -50 111 0 15 7 44 15 65 45 106 149 143 233 82z"/>
<path d="M3122 1824 c-91 -45 -128 -117 -82 -159 11 -10 34 -18 52 -18 31 0
32 0 121 104 27 31 29 32 88 25 78 -8 139 -40 161 -86 15 -30 16 -46 8 -95 -5
-32 -13 -62 -18 -67 -4 -4 -59 -17 -122 -28 -236 -42 -360 -93 -410 -168 -75
-113 -37 -222 95 -271 79 -30 132 -29 240 3 49 14 95 26 101 26 7 0 15 -14 19
-31 11 -50 58 -94 122 -114 l57 -18 45 24 c57 30 110 102 94 127 -15 24 -43
16 -74 -20 -18 -21 -32 -29 -50 -26 -23 3 -24 6 -23 68 1 36 20 151 43 257 57
268 54 323 -23 391 -76 66 -185 102 -313 102 -65 0 -88 -5 -131 -26z m308
-396 c0 -13 -12 -74 -26 -135 l-27 -113 -56 -20 c-138 -52 -214 -45 -240 23
-27 73 18 156 112 201 40 20 179 59 230 65 4 1 7 -9 7 -21z"/>
<path d="M5410 1836 c-164 -39 -266 -111 -295 -210 -21 -69 0 -106 60 -106 54
1 80 34 91 120 9 66 36 94 105 109 62 14 74 14 122 0 33 -9 42 -18 63 -62 42
-91 37 -106 -63 -179 -208 -152 -290 -246 -307 -353 -13 -79 52 -160 148 -186
32 -9 52 -8 103 6 69 19 119 51 201 128 l53 49 33 -35 c21 -23 45 -38 69 -42
42 -8 116 8 154 32 51 34 82 144 48 173 -22 18 -42 6 -55 -37 -16 -48 -28 -63
-51 -63 -28 0 -43 40 -98 265 -55 224 -81 301 -112 334 -51 55 -172 80 -269
57z m209 -388 c21 -82 41 -179 41 -202 0 -32 -102 -131 -156 -152 -55 -21 -89
-12 -115 29 -29 47 -23 140 14 195 29 44 172 172 192 172 7 0 17 -19 24 -42z"/>
<path d="M4222 1691 c-57 -15 -107 -33 -112 -41 -15 -24 8 -49 49 -56 21 -3
44 -9 50 -14 24 -14 31 -87 31 -327 0 -230 -1 -244 -20 -263 -11 -11 -31 -20
-44 -20 -55 0 -89 -36 -60 -64 13 -14 47 -16 214 -16 188 0 200 1 210 20 15
28 -19 60 -64 60 -59 0 -61 9 -61 249 0 255 6 281 74 352 60 63 90 65 125 11
46 -73 83 -86 126 -43 35 35 39 72 11 117 -56 92 -206 78 -310 -29 -22 -22
-43 -39 -46 -36 -3 3 -9 27 -14 52 -9 49 -26 78 -45 76 -6 -1 -57 -13 -114
-28z"/>
</g>
</svg>
